HIERARCHY
ROOT Hips
{
 OFFSET 0.000000 0.000000 0.000000
 CHANNELS 6 Xposition Yposition Zposition Yrotation Xrotation Zrotation
 JOINT Chest
 {
  OFFSET 0.000000 12.953391 -0.028419
  CHANNELS 3 Yrotation Xrotation Zrotation
  JOINT Chest2
  {
   OFFSET 0.000000 10.280254 0.051622
   CHANNELS 3 Yrotation Xrotation Zrotation
   JOINT Chest3
   {
    OFFSET 0.000000 9.287180 0.000000
    CHANNELS 3 Yrotation Xrotation Zrotation
    JOINT Chest4
    {
     OFFSET 0.000000 9.287180 0.000000
     CHANNELS 3 Yrotation Xrotation Zrotation
     JOINT Neck
     {
      OFFSET 0.000000 13.296264 0.000000
      CHANNELS 3 Yrotation Xrotation Zrotation
      JOINT Head
      {
       OFFSET 0.000000 8.959264 0.099003
       CHANNELS 3 Yrotation Xrotation Zrotation
       End Site
       {
        OFFSET 0.000000 17.121337 0.039303
       }
      }
     }
     JOINT RightCollar
     {
      OFFSET -3.193511 7.451388 0.000000
      CHANNELS 3 Yrotation Xrotation Zrotation
      JOINT RightShoulder
      {
       OFFSET -15.792092 0.000000 0.000000
       CHANNELS 3 Yrotation Xrotation Zrotation
       JOINT RightElbow
       {
        OFFSET -31.151839 0.000000 0.000000
        CHANNELS 3 Yrotation Xrotation Zrotation
        JOINT RightWrist
        {
         OFFSET -25.536298 0.000000 0.002321
         CHANNELS 3 Yrotation Xrotation Zrotation
         End Site
         {
          OFFSET -19.133213 0.000000 0.000000
         }
        }
       }
      }
     }
     JOINT LeftCollar
     {
      OFFSET 3.193511 7.451388 0.000000
      CHANNELS 3 Yrotation Xrotation Zrotation
      JOINT LeftShoulder
      {
       OFFSET 15.792092 0.000000 0.000000
       CHANNELS 3 Yrotation Xrotation Zrotation
       JOINT LeftElbow
       {
        OFFSET 31.151839 0.000000 0.000000
        CHANNELS 3 Yrotation Xrotation Zrotation
        JOINT LeftWrist
        {
         OFFSET 25.536298 0.000000 0.002321
         CHANNELS 3 Yrotation Xrotation Zrotation
         End Site
         {
          OFFSET 19.133213 0.000000 0.000000
         }
        }
       }
      }
     }
    }
   }
  }
 }
 JOINT RightHip
 {
  OFFSET -10.745749 0.139252 0.014209
  CHANNELS 3 Yrotation Xrotation Zrotation
  JOINT RightKnee
  {
   OFFSET 0.000000 -43.743899 -0.006071
   CHANNELS 3 Yrotation Xrotation Zrotation
   JOINT RightAnkle
   {
    OFFSET 0.000000 -43.214199 0.089931
    CHANNELS 3 Yrotation Xrotation Zrotation
    JOINT RightToe
    {
     OFFSET 0.000000 -9.699830 19.151588
     CHANNELS 3 Yrotation Xrotation Zrotation
     End Site
     {
      OFFSET 0.000000 -1.292898 4.893873
     }
    }
   }
  }
 }
 JOINT LeftHip
 {
  OFFSET 10.745749 0.139252 0.014209
  CHANNELS 3 Yrotation Xrotation Zrotation
  JOINT LeftKnee
  {
   OFFSET 0.000000 -43.743899 -0.006071
   CHANNELS 3 Yrotation Xrotation Zrotation
   JOINT LeftAnkle
   {
    OFFSET 0.000000 -43.214199 0.089931
    CHANNELS 3 Yrotation Xrotation Zrotation
    JOINT LeftToe
    {
     OFFSET 0.000000 -9.699830 19.151588
     CHANNELS 3 Yrotation Xrotation Zrotation
     End Site
     {
      OFFSET 0.000000 -1.292898 4.893873
     }
    }
   }
  }
 }
}
MOTION
Frames: 13
Frame Time: 0.016667
0.000000	0.000000	0.000000	0.000000	0.000000	0.000000	1.443190	10.810648	-6.871961	1.038372	15.145965	-10.226536	0.618516	19.858647	-13.303697	0.059248	23.824423	-15.767670	4.032907	42.796689	-23.873944	28.537268	46.680999	-25.362408	2.721837	12.253031	-15.185909	7.853829	-21.804889	15.517211	1.016725	-3.267054	0.780941	-7.708267	11.579579	-5.971503	-5.082121	10.637269	-20.937791	9.183753	-2.906422	-60.462116	8.086024	5.435179	-52.678173	19.112576	5.057354	-47.814928	-8.261326	-23.525207	6.070110	-2.576002	34.144612	0.312536	7.966520	35.034112	2.642957	7.479706	25.335258	1.057208	3.710815	-14.777406	3.031648	0.676959	13.742036	3.497271	-15.999091	9.150920	-1.632647	-16.592079	3.341734	-2.401426
-0.269486	0.482818	-1.189260	1.236578	0.209994	0.298385	2.093711	10.562480	-2.818212	5.260777	13.836644	-3.380882	6.841984	20.763407	-3.583093	8.843547	24.539327	-2.984694	11.113166	52.186871	-7.654774	23.806373	75.114009	-6.831725	14.463741	19.569563	4.107100	16.255536	-7.354778	45.365963	11.252916	6.283094	32.315669	26.707391	9.061117	40.269143	7.793143	10.713234	-8.659559	7.900832	-2.758872	-38.563844	19.535628	1.969663	-29.562007	39.431665	2.105723	-29.719036	-9.177893	-11.742527	0.781986	-11.490508	35.603143	-2.011659	-3.906463	47.656019	0.090087	-5.621681	37.385359	0.762444	-2.083125	-11.862676	-4.345199	-7.483955	15.232119	-3.514800	-29.198936	17.501211	-2.130934	-28.669739	10.123120	-0.701570
-0.316643	0.013337	-2.475712	-0.724455	-1.183139	0.777070	0.850315	8.437421	-2.216211	5.825861	12.146577	-0.103955	8.795713	17.372020	0.702671	7.775060	20.998907	0.567673	14.118399	51.497625	-1.913988	38.367823	71.658420	9.608751	13.223234	20.273292	6.871564	9.392107	-6.859918	56.057824	5.983291	7.011947	42.444723	20.273345	2.712792	48.744424	6.461542	8.781869	-6.746545	7.574290	-2.183803	-37.072442	21.559106	-0.715407	-28.065454	38.588105	-0.171175	-27.784865	-10.552407	-11.677194	1.060698	-9.023928	25.624893	0.946512	5.139962	32.842223	11.133234	6.474951	20.886995	8.601208	-3.023581	-9.710410	-2.082787	-7.373888	21.944648	-0.888050	-36.653719	19.966266	-12.397617	-34.142730	7.722468	-5.502047
-0.492178	-1.289056	-2.718003	-3.665249	-3.010157	-0.317515	1.316628	8.845587	-3.363538	5.880397	12.862525	-2.180940	9.364373	18.542616	-2.475372	7.904371	22.006549	-3.274905	15.198856	51.293386	-7.931383	44.245059	69.267427	1.590140	13.829929	20.818043	4.132681	12.380369	-11.980989	51.489601	8.264299	2.413617	37.130003	22.223955	0.002939	43.145985	6.663989	8.752926	-10.964495	10.374487	-3.890384	-45.456713	23.383396	-2.246204	-38.091894	37.887947	0.631321	-37.047192	-11.298986	-12.933220	0.797395	-10.584606	18.757672	1.161141	5.418019	33.787785	13.589194	7.224011	18.587285	9.011300	-5.142469	-3.546978	-2.073308	-11.128312	24.376771	-2.851065	-44.232843	20.714961	-21.616157	-40.795616	5.773183	-10.709510
-0.323041	-2.129172	-3.319504	-6.131902	-4.195873	-1.687577	2.480667	9.996562	-3.006282	4.924645	13.926391	-2.702322	8.727215	18.461706	-2.867048	9.533372	22.303999	-3.303675	15.876758	51.618000	-8.302960	44.637909	71.696050	1.689249	14.787719	20.841979	4.012378	14.931827	-12.687782	52.865815	11.785546	2.053322	37.547464	26.433102	-2.790433	43.763419	7.788974	9.824697	-11.428955	11.470607	-4.944522	-46.056264	26.893870	-3.527354	-38.167608	41.421469	-0.770655	-40.200942	-12.750195	-11.977113	1.880437	-9.754542	16.981712	2.047731	7.240922	30.880263	15.915429	8.787322	17.675571	11.907717	-7.301968	-0.150295	-1.490894	-11.472380	29.673627	-3.516260	-45.017821	23.759040	-21.795224	-43.027806	7.055653	-9.606353
0.402822	-2.486932	-3.979332	-8.172631	-4.548431	-2.428052	2.187190	10.536952	-2.693819	4.028184	14.328212	-2.283337	7.754380	18.426479	-2.249212	9.191491	22.348428	-2.334529	14.342084	51.609489	-7.739225	39.457894	73.098337	-0.528126	14.328743	20.001063	4.283786	14.489716	-11.854762	53.418094	11.435945	2.308790	37.621169	26.314441	-4.327002	43.879050	8.215842	9.609610	-10.171785	10.583285	-5.432460	-42.841637	26.448525	-4.437495	-34.447913	42.084029	-3.029464	-38.626706	-12.910584	-10.798643	2.366526	-9.196042	17.924541	2.388761	5.495019	27.845837	14.742502	7.305501	17.030214	12.692842	-7.411564	-2.664937	-1.218145	-9.903284	29.379762	-3.190691	-40.875148	23.090511	-16.967540	-40.712325	8.859379	-7.007550
1.119928	-2.904818	-4.382434	-10.581540	-4.826835	-2.928997	1.424883	10.174326	-2.680532	4.206133	14.130543	-1.620879	7.678645	18.431940	-1.758010	8.041810	22.277201	-1.832111	13.238057	51.603360	-7.442149	36.805227	72.476419	-1.773572	13.839435	19.921474	4.963521	12.607916	-10.790827	53.627077	8.552522	2.383258	38.505106	23.484354	-4.792603	44.821964	7.707954	9.324017	-9.342209	9.234744	-4.834099	-40.957398	23.834222	-4.371935	-32.639876	39.588869	-3.562559	-35.407934	-12.699466	-11.433936	2.172808	-10.274067	19.327158	2.138407	2.710339	28.705210	12.767213	4.840552	16.441769	10.768654	-6.100238	-4.996911	-1.888869	-9.700908	26.530142	-3.451412	-40.396713	20.021547	-16.707721	-40.047749	7.451271	-8.091090
1.543587	-3.623851	-4.652363	-13.143706	-5.693594	-3.740448	1.332575	9.811847	-2.900560	4.695574	13.822865	-1.774292	8.165487	18.506119	-2.110986	7.906118	22.373622	-2.426391	13.583768	51.630742	-7.909078	38.132891	71.737651	-1.568381	14.181892	20.506550	4.990821	12.351009	-10.896885	53.345235	8.188534	2.319813	38.624303	23.272934	-4.048868	44.560262	7.554364	9.473098	-9.881610	9.581598	-4.435050	-42.391210	23.903238	-4.001565	-34.476916	38.942403	-2.468084	-35.580330	-12.744703	-12.352440	1.976507	-10.900016	18.766821	2.048062	3.121242	30.586097	13.222526	5.255543	16.566291	10.178199	-5.646804	-4.124846	-2.181366	-10.349367	25.866064	-3.912724	-42.651519	19.664379	-19.596494	-41.203641	6.047545	-9.999057
1.921661	-4.412367	-5.009113	-15.514284	-6.774018	-4.805932	1.742879	9.903344	-3.009613	4.768305	13.883189	-2.224697	8.368956	18.524006	-2.562202	8.521418	22.454662	-2.934928	14.386918	51.649617	-8.347292	40.155828	71.793255	-1.076143	14.537213	20.707765	4.541991	13.483067	-11.658549	52.962338	9.732197	2.098007	37.976541	24.805250	-3.640700	43.777352	7.755923	9.687604	-10.610284	10.465971	-4.695158	-44.056047	25.307468	-3.938924	-36.180166	40.052715	-1.839922	-37.564395	-12.934883	-12.340272	1.974032	-10.622485	17.731014	2.084847	4.544199	30.556908	14.322434	6.501386	16.849160	10.906493	-6.342127	-2.452013	-1.950703	-10.861329	27.434418	-3.955492	-43.651946	21.335292	-20.565639	-41.967054	6.409405	-9.900224
2.471626	-5.071464	-5.406631	-17.768027	-7.661385	-5.723062	1.919702	10.141797	-2.880573	4.515723	14.064172	-2.246207	8.155921	18.474571	-2.430524	8.792499	22.403145	-2.708945	14.438196	51.624949	-8.114304	40.005972	72.231270	-0.841268	14.459828	20.418085	4.434315	13.872966	-11.762371	53.108595	10.356875	2.147640	37.845230	25.345880	-3.884863	43.873389	7.920962	9.660848	-10.435925	10.499094	-5.031342	-43.563230	25.715721	-4.168439	-35.488488	40.818077	-2.313156	-37.941628	-12.927966	-11.826979	2.100943	-10.121879	17.639537	2.164671	4.947794	29.419476	14.520418	6.833523	16.850765	11.607823	-6.812311	-2.412313	-1.710935	-10.609318	28.246085	-3.714293	-42.709225	22.100238	-19.241164	-41.566397	7.276642	-8.773363
3.099482	-5.669943	-5.733241	-20.067774	-8.399986	-6.412483	1.741564	10.155935	-2.819619	4.412657	14.084773	-2.039355	7.985921	18.453459	-2.205348	8.526381	22.353262	-2.422081	14.023852	51.616732	-7.901264	38.913602	72.310307	-1.174162	14.228819	20.220033	4.576930	13.425671	-11.418077	53.237056	9.727241	2.247561	38.007388	24.677704	-4.147991	44.141610	7.850077	9.524293	-10.046662	10.048679	-4.995151	-42.618500	25.065323	-4.258784	-34.460763	40.432637	-2.768188	-37.065435	-12.843929	-11.680031	2.127497	-10.177835	18.208232	2.158954	4.155243	29.111965	13.917940	6.127477	16.698691	11.357882	-6.568023	-3.352866	-1.768629	-10.270389	27.606632	-3.616139	-41.829598	21.371334	-18.233978	-40.994349	7.354759	-8.448032
3.646605	-6.333890	-5.979713	-22.450337	-9.253362	-7.072374	1.579878	10.019481	-2.850963	4.527471	13.983388	-1.932304	8.054021	18.463521	-2.162754	8.289163	22.348741	-2.414418	13.868714	51.618660	-7.890800	38.642108	72.077038	-1.294135	14.201605	20.313450	4.730202	13.015189	-11.225444	53.266348	9.125639	2.267881	38.234993	24.118399	-4.104449	44.308916	7.731164	9.495717	-9.971700	9.859818	-4.793293	-42.508291	24.602734	-4.171668	-34.437290	39.863931	-2.667496	-36.476228	-12.803407	-11.947662	2.058427	-10.470952	18.406510	2.102188	3.722526	29.635817	13.629708	5.756837	16.630364	10.894223	-6.227492	-3.645203	-1.935004	-10.321665	26.956662	-3.731557	-42.129765	20.734308	-18.709175	-41.063981	6.860056	-9.002314
4.122147	-7.068686	-6.210466	-24.814143	-10.266604	-7.810534	1.638020	9.968881	-2.912064	4.630142	13.938733	-2.040392	8.181764	18.483047	-2.309761	8.375623	22.383604	-2.612811	14.078093	51.629029	-8.058599	39.264492	71.952654	-1.170843	14.329063	20.461989	4.657844	13.177374	-11.384492	53.148246	9.339540	2.212034	38.141156	24.357554	-3.904571	44.115478	7.736991	9.562816	-10.207512	10.086639	-4.757383	-43.086580	24.866117	-4.085415	-35.095505	39.934402	-2.347456	-36.873432	-12.848451	-12.113134	2.021143	-10.537626	18.129046	2.091290	4.041319	29.988050	13.901187	6.045926	16.708789	10.901059	-6.264762	-3.182225	-1.947282	-10.530521	27.121743	-3.821284	-42.720643	20.962848	-19.423662	-41.409133	6.669629	-9.344314
